<svg width="22" height="26" viewBox="0 0 22 26" fill="none" xmlns="http://www.w3.org/2000/svg">
<path d="M15.8108 0.591431C15.869 0.591431 15.9271 0.591431 15.9886 0.591431C16.1313 2.35448 15.4584 3.67183 14.6405 4.62581C13.838 5.57321 12.7392 6.49206 10.9618 6.35264C10.8433 4.61484 11.5173 3.39519 12.3341 2.44341C13.0915 1.55639 14.4802 0.767077 15.8108 0.591431Z" fill="black"/>
<path d="M21.1912 18.9421C21.1912 18.9597 21.1912 18.975 21.1912 18.9915C20.6917 20.5043 19.9792 21.8008 19.1097 23.0039C18.316 24.0963 17.3434 25.5662 15.6067 25.5662C14.106 25.5662 13.1092 24.6012 11.5712 24.5749C9.94429 24.5485 9.04959 25.3818 7.56208 25.5914C7.39192 25.5914 7.22177 25.5914 7.0549 25.5914C5.9626 25.4334 5.08107 24.5683 4.43887 23.7889C2.54518 21.4857 1.08182 18.5107 0.80957 14.7035C0.80957 14.3303 0.80957 13.9581 0.80957 13.5849C0.924838 10.8602 2.24877 8.64482 4.00853 7.57117C4.93726 7.00032 6.21399 6.514 7.63563 6.73136C8.24491 6.82577 8.86736 7.03435 9.41296 7.24074C9.93002 7.43944 10.5766 7.79183 11.1892 7.77317C11.6041 7.76109 12.0169 7.54483 12.4352 7.39223C13.6603 6.94982 14.8613 6.44264 16.4443 6.68086C18.3468 6.96849 19.6971 7.81379 20.5314 9.11796C18.922 10.1422 17.6497 11.6857 17.867 14.3215C18.0603 16.7158 19.4523 18.1166 21.1912 18.9421Z" fill="black"/>
</svg>
