<svg width="14" height="24" viewBox="0 0 14 24" fill="none" xmlns="http://www.w3.org/2000/svg">
<path d="M4.32195 13.5379C4.23403 13.5379 2.38967 13.5385 1.53903 13.5376C1.10111 13.5373 0.944866 13.38 0.944866 12.9393C0.944306 11.8072 0.944026 10.6752 0.944866 9.54313C0.945146 9.10801 1.11035 8.94197 1.54267 8.94169C2.39331 8.94113 4.22759 8.94141 4.32195 8.94141C4.32195 8.86385 4.32167 7.22949 4.32195 6.47685C4.32251 5.36413 4.52103 4.29901 5.08635 3.32377C5.66511 2.32557 6.50735 1.64181 7.58675 1.24645C8.27807 0.993048 8.99571 0.891968 9.72931 0.891408C10.6471 0.890848 11.565 0.891688 12.4831 0.893368C12.8776 0.893928 13.0526 1.06837 13.0535 1.46569C13.0551 2.53053 13.0551 3.59537 13.0535 4.65993C13.0529 5.06145 12.8852 5.22273 12.4817 5.22721C11.7293 5.23533 10.9764 5.23029 10.2249 5.26053C9.46583 5.26053 9.06655 5.63125 9.06655 6.41693C9.04835 7.24797 9.05899 8.07985 9.05899 8.94113C9.13011 8.94113 11.2903 8.94085 12.3 8.94113C12.7586 8.94113 12.9154 9.09877 12.9154 9.55993C12.9154 10.6858 12.9151 11.812 12.9143 12.9379C12.914 13.3923 12.7667 13.5373 12.3053 13.5376C11.2956 13.5382 9.14383 13.5379 9.04975 13.5379V22.6505C9.04975 23.1363 8.89687 23.2911 8.41751 23.2911C7.24879 23.2911 6.07979 23.2914 4.91107 23.2911C4.48743 23.2911 4.32223 23.1265 4.32223 22.7029C4.32195 19.7351 4.32195 13.6421 4.32195 13.5379Z" fill="#3D6AD6"/>
</svg>
