<svg width="20" height="21" viewBox="0 0 20 21" fill="none" xmlns="http://www.w3.org/2000/svg">
<path d="M4.43242 12.1777L3.73625 14.7766L1.19176 14.8304C0.431328 13.42 0 11.8063 0 10.0915C0 8.43322 0.403281 6.86947 1.11812 5.49255H1.11867L3.38398 5.90787L4.37633 8.15959C4.16863 8.76509 4.05543 9.41509 4.05543 10.0915C4.05551 10.8255 4.18848 11.5288 4.43242 12.1777Z" fill="#FBBB00"/>
<path d="M19.8252 8.22333C19.94 8.82825 19.9999 9.45298 19.9999 10.0915C19.9999 10.8074 19.9246 11.5057 19.7812 12.1794C19.2944 14.4717 18.0224 16.4733 16.2604 17.8898L16.2598 17.8893L13.4065 17.7437L13.0027 15.2228C14.1719 14.5371 15.0857 13.464 15.567 12.1794H10.2197V8.22333H15.645H19.8252Z" fill="#518EF8"/>
<path d="M16.2595 17.8893L16.2601 17.8898C14.5464 19.2673 12.3694 20.0914 9.99965 20.0914C6.19141 20.0914 2.88043 17.9629 1.19141 14.8305L4.43207 12.1777C5.27656 14.4316 7.45074 16.036 9.99965 16.036C11.0952 16.036 12.1216 15.7398 13.0024 15.2228L16.2595 17.8893Z" fill="#28B446"/>
<path d="M16.383 2.39362L13.1434 5.04581C12.2319 4.47604 11.1544 4.1469 10 4.1469C7.39344 4.1469 5.1786 5.82491 4.37641 8.15956L1.11871 5.49252H1.11816C2.78246 2.28374 6.1352 0.0914307 10 0.0914307C12.4264 0.0914307 14.6511 0.955727 16.383 2.39362Z" fill="#F14336"/>
</svg>
